<svg xmlns="http://www.w3.org/2000/svg" viewBox="0 10 109.5999984741211 35" data-asc="0.9" width="109.5999984741211" height="35"><defs/><g fill="#e50914"><g transform="translate(0, 0)"><path d="M0 10L14.55 10L14.55 15L5.50 15L5.50 24.75L12.60 24.75L12.60 29.75L5.50 29.75L5.50 45L0 45L0 10ZM17.20 10L22.70 10L22.70 40L31.75 40L31.75 45L17.20 45L17.20 10ZM34.40 10L39.90 10L39.90 45L34.40 45L34.40 10ZM48.85 27.10L42.80 10L48.60 10L52.30 21.30L52.40 21.30L56.20 10L61.40 10L55.35 27.10L61.70 45L55.90 45L51.90 32.80L51.80 32.80L47.70 45L42.50 45L48.85 27.10ZM62.85 10L68.40 10L72 37.15L72.10 37.15L75.70 10L80.75 10L75.45 45L68.15 45L62.85 10ZM83.40 10L88.90 10L88.90 45L83.40 45L83.40 10ZM93.00 10L101.40 10Q105.50 10 107.55 12.20Q109.60 14.40 109.60 18.65L109.60 36.35Q109.60 40.60 107.55 42.80Q105.50 45 101.40 45L93.00 45L93.00 10M101.30 40Q102.65 40 103.37 39.20Q104.10 38.40 104.10 36.60L104.10 18.40Q104.10 16.60 103.37 15.80Q102.65 15 101.30 15L98.50 15L98.50 40L101.30 40Z"/></g></g></svg>